# xmcd
#
# Track frame offsets: 
#        150
#        10822
#        38460
#        46852
#        72110
#        94440
#        115785
#        131480
#        171277
#        185457
#        206270
#        219817
#        238375
#        260025
#        275780
#        311835
#
# Disc length: 4304 seconds
#
# Revision: 14
# Processed by: cddbd v1.5.2PL0 Copyright (c) Steve Scherf et al.
# Submitted via: ExactAudioCopyFreeDBPlugin 1.0
#
DISCID=e610ce10
DTITLE=Stevie Ray Vaughan - The Real Deal:  Greatest Hits, Volume 2
DYEAR=1999
DGENRE=Blues
TTITLE0=Love Struck Baby
TTITLE1=Ain't Gone 'n' Give Up On Love
TTITLE2=Scuttle Buttin'
TTITLE3=Wall of Denial
TTITLE4=Lenny
TTITLE5=Superstition (live)
TTITLE6=Empty Arms
TTITLE7=Riviera Paradise
TTITLE8=Look at Little Sister
TTITLE9=Willie the Wimp (live)
TTITLE10=Pipeline
TTITLE11=Shake for Me (live)
TTITLE12=Leave My Girl Alone (live)
TTITLE13=Telephone Song
TTITLE14=Voodoo Chile (Slight Return)
TTITLE15=Life by the Drop
EXTD=YEAR: 1999
EXTT0=
EXTT1=
EXTT2=
EXTT3=
EXTT4=
EXTT5=
EXTT6=
EXTT7=
EXTT8=
EXTT9=
EXTT10=
EXTT11=
EXTT12=
EXTT13=
EXTT14=
EXTT15=
PLAYORDER=
